<svg width="21" height="21" viewBox="0 0 21 21" fill="none" xmlns="http://www.w3.org/2000/svg">
<path fill-rule="evenodd" clip-rule="evenodd" d="M10.3072 1.4881e-07C12.4979 -9.85119e-06 14.2186 -1.98185e-05 15.562 0.18059C16.9386 0.36568 18.0309 0.75272 18.8891 1.61091C19.7473 2.46911 20.1343 3.56137 20.3194 4.93802C20.5 6.28144 20.5 8.00214 20.5 10.1928V10.3072C20.5 12.4979 20.5 14.2186 20.3194 15.562C20.1343 16.9386 19.7473 18.0309 18.8891 18.8891C18.0309 19.7473 16.9386 20.1343 15.562 20.3194C14.2186 20.5 12.4979 20.5 10.3072 20.5H10.1928C8.0021 20.5 6.28144 20.5 4.93802 20.3194C3.56137 20.1343 2.46911 19.7473 1.61091 18.8891C0.75272 18.0309 0.36568 16.9386 0.18059 15.562C-1.98185e-05 14.2186 -9.85119e-06 12.4979 1.4881e-07 10.3072V10.1928C-9.85119e-06 8.00211 -1.98185e-05 6.28144 0.18059 4.93802C0.36568 3.56137 0.75272 2.46911 1.61091 1.61091C2.46911 0.75272 3.56137 0.36568 4.93802 0.18059C6.28144 -1.98185e-05 8.00212 -9.85119e-06 10.1928 1.4881e-07H10.3072ZM15.1275 6.27038C15.3925 6.75493 15.2145 7.36257 14.73 7.62756C13.3586 8.3775 12.0708 9.9475 11.0874 11.4532C10.6081 12.1872 10.2235 12.8707 9.959 13.3704C9.827 13.6197 9.7256 13.8221 9.6579 13.9605L9.5596 14.1659C9.4051 14.5036 9.0761 14.7282 8.7053 14.7487C8.3344 14.7691 7.98267 14.5823 7.79198 14.2635C7.48126 13.744 6.98753 13.2698 6.52997 12.9081C6.30764 12.7323 6.10752 12.5937 5.96471 12.5002L5.75442 12.3687C5.27493 12.0949 5.10797 11.4844 5.38152 11.0048C5.65513 10.525 6.26585 10.3579 6.74559 10.6315L7.06063 10.8272C7.24282 10.9465 7.4927 11.1197 7.77038 11.3392C7.98258 11.507 8.21984 11.7087 8.4594 11.9411C8.7162 11.4797 9.0372 10.935 9.4129 10.3596C10.4296 8.8029 11.9417 6.87286 13.7704 5.87282C14.2549 5.60782 14.8625 5.78582 15.1275 6.27038Z" fill="#F3541C"/>
</svg>
